<svg id="Capa_1" enable-background="new 0 0 512 512" height="512" viewBox="0 0 512 512" width="512" xmlns="http://www.w3.org/2000/svg"><g><g><path d="m361.286 361.078h-199.974-5.84-10.599c-30.701 0-55.589 24.888-55.589 55.589v95.333h327.591v-95.332c0-30.702-24.888-55.59-55.589-55.59z" fill="#3c87d0"/><path d="m367.127 361.078h-35.042c30.701 0 55.589 24.888 55.589 55.589v95.333h35.042v-95.332c0-30.702-24.888-55.59-55.589-55.59z" fill="#0078c8"/><path d="m256 418.083c-26.723 0-48.386-21.663-48.386-48.386v-116.441h96.771v116.442c.001 26.723-21.662 48.385-48.385 48.385z" fill="#ffb09e"/><path d="m207.614 346.185c14.286 6.449 30.105 10.104 46.763 10.254 17.928-.161 34.889-4.376 50.008-11.772v-85.57h-96.771z" fill="#ffa78f"/><path d="m315.982 159.406h56.76c21.822 0 39.512 17.69 39.512 39.512v.243c0 21.822-17.69 39.512-39.512 39.512h-56.76z" fill="#ffa78f"/><path d="m265.708 35.955h-97.689c-34.514 0-61.302 30.109-57.286 64.389l12.553 107.154h142.422z" fill="#aa6a51"/><path d="m195.659 238.673h-56.76c-21.822 0-39.512-17.69-39.512-39.512v-.243c0-21.822 17.69-39.512 39.512-39.512h56.76z" fill="#ffb09e"/><path d="m254.377 62.042c-63.777.572-115.303 52.442-115.303 116.353v41.248c0 63.912 51.526 115.781 115.303 116.354 63.777-.572 115.303-52.442 115.303-116.354v-41.248c0-63.912-51.526-115.781-115.303-116.353z" fill="#ffcebf"/><g><path d="m255.821 287.28c-17.936 0-32.527-14.592-32.527-32.527 0-4.267 3.459-7.726 7.726-7.726s7.726 3.459 7.726 7.726c0 9.415 7.659 17.074 17.074 17.074s17.074-7.659 17.074-17.074c0-4.267 3.459-7.726 7.726-7.726s7.726 3.459 7.726 7.726c.002 17.936-14.59 32.527-32.525 32.527z" fill="#ffa799"/></g><g><g><path d="m198.819 225.976c-4.267 0-7.726-3.459-7.726-7.726v-21.505c0-4.267 3.459-7.726 7.726-7.726s7.726 3.459 7.726 7.726v21.505c.001 4.267-3.458 7.726-7.726 7.726z" fill="#5a5a5a"/></g><g><path d="m312.822 225.976c-4.267 0-7.726-3.459-7.726-7.726v-21.505c0-4.267 3.459-7.726 7.726-7.726s7.726 3.459 7.726 7.726v21.505c0 4.267-3.459 7.726-7.726 7.726z" fill="#5a5a5a"/></g></g><path d="m191.093 239.3c-6.23 0-10.85 0-17.181 0-4.267 0-7.726 3.459-7.726 7.726s3.459 7.726 7.726 7.726h17.181c4.267 0 7.726-3.459 7.726-7.726s-3.459-7.726-7.726-7.726z" fill="#fe8f83"/><path d="m256.233 62.028h-.792c-5.313 0-10.541.364-15.665 1.053 56.858 7.652 100.702 56.359 100.702 115.313v41.248c0 58.954-43.843 107.662-100.702 115.314 5.124.69 10.352 1.053 15.665 1.053h.792c64.268 0 116.367-52.099 116.367-116.367v-41.248c0-64.267-52.099-116.366-116.367-116.366z" fill="#ffb09e"/><path d="m337.729 239.3c-6.23 0-10.85 0-17.181 0-4.267 0-7.726 3.459-7.726 7.726s3.459 7.726 7.726 7.726h17.181c4.267 0 7.726-3.459 7.726-7.726s-3.459-7.726-7.726-7.726z" fill="#fe8f83"/><path d="m206.142 159.406h27.88v-95.382c-39.122 7.282-71.367 34.118-86.182 70 14.551 15.609 35.28 25.382 58.302 25.382z" fill="#ffb09e"/><path d="m398.023 159.406h-159.758c-44.019 0-79.703-35.684-79.703-79.703v-21.456c0-32.169 26.078-58.247 58.247-58.247h102.472c43.488 0 78.742 35.254 78.742 78.742z" fill="#aa6a51"/><path d="m319.281 0h-35.042c43.488 0 78.742 35.254 78.742 78.742v80.664h35.042v-80.664c0-43.488-35.254-78.742-78.742-78.742z" fill="#935b44"/></g></g></svg>