<svg id="Capa_1" enable-background="new 0 0 512 512" height="512" viewBox="0 0 512 512" width="512" xmlns="http://www.w3.org/2000/svg"><g><path d="m394.55 331.353c14.37-16.449 21.192-39.384 18.501-62.2l-8.976-76.113c-9.696-82.219-67.257-151.788-148.075-178.967l-82.748 27.828c-30.105 10.124-52.112 39.082-56.228 73.988l-18.075 153.264c-2.691 22.816 4.131 45.751 18.501 62.2 12.579 14.399 29.807 22.515 47.792 22.515h181.516c17.985-.001 35.212-8.116 47.792-22.515z" fill="#c86d36"/><path d="m413.051 269.152-8.976-76.112c-9.696-82.219-67.257-151.788-148.075-178.967l-18.598 6.255c72.113 30.629 122.606 96.188 131.63 172.713l8.976 76.112c2.691 22.816-4.131 45.752-18.501 62.2-12.579 14.399-29.806 22.515-47.792 22.515h35.042c17.985 0 35.213-8.116 47.792-22.515 14.371-16.449 21.193-39.384 18.502-62.201z" fill="#ac5e2e"/><path d="m175.545 353.867c-33.801 0-61.201 27.401-61.201 61.201v96.932h283.313v-96.931c0-33.801-27.401-61.201-61.201-61.201-5.482-.001-162.946-.001-160.911-.001z" fill="#f58a97"/><path d="m336.455 353.867c-1.496 0-14.321 0-32.122 0 33.801 0 61.201 27.401 61.201 61.201v96.932h32.122v-96.932c0-33.8-27.4-61.201-61.201-61.201z" fill="#f07281"/><path d="m256 409.424c-27.525 0-49.838-22.313-49.838-49.838v-119.937h99.676v119.937c0 27.525-22.313 49.838-49.838 49.838z" fill="#ffb09e"/><path d="m206.162 338.262c10.842 5.052 22.589 8.487 34.935 9.985-.015.002-.03.004-.046.006 23.224 2.841 45.442-1.174 64.786-10.343v-98.261h-99.676v98.613z" fill="#ffa78f"/><path d="m315.798 154.993h56.76c21.822 0 39.512 17.69 39.512 39.512v.243c0 21.822-17.69 39.512-39.512 39.512h-56.76z" fill="#ffa78f"/><path d="m195.475 234.26h-56.76c-21.822 0-39.512-17.69-39.512-39.512v-.243c0-21.822 17.69-39.512 39.512-39.512h56.76z" fill="#ffb09e"/><path d="m254.193 57.628c-63.777.572-115.303 52.441-115.303 116.353v41.248c0 63.911 51.526 115.781 115.303 116.353 63.777-.572 115.303-52.442 115.303-116.353v-41.248c-.001-63.912-51.527-115.78-115.303-116.353z" fill="#ffcebf"/><g><path d="m255.815 280.303c-18.346 0-33.272-14.926-33.272-33.272 0-4.267 3.459-7.726 7.726-7.726s7.726 3.459 7.726 7.726c0 9.825 7.993 17.819 17.819 17.819 9.825 0 17.819-7.993 17.819-17.819 0-4.267 3.459-7.726 7.726-7.726s7.726 3.459 7.726 7.726c.002 18.347-14.924 33.272-33.27 33.272z" fill="#ffa799"/></g><path d="m189.562 234.499c-6.23 0-10.85 0-17.181 0-4.267 0-7.726 3.459-7.726 7.726s3.459 7.726 7.726 7.726h17.181c4.267 0 7.726-3.459 7.726-7.726s-3.459-7.726-7.726-7.726z" fill="#fe8f83"/><g><path d="m314.712 225.92c-4.267 0-7.726-3.459-7.726-7.726v-22.15c0-4.267 3.459-7.726 7.726-7.726h9.523c4.267 0 7.726 3.459 7.726 7.726s-3.459 7.726-7.726 7.726h-1.797v14.424c.001 4.267-3.459 7.726-7.726 7.726z" fill="#5a5a5a"/></g><g><path d="m197.288 225.92c-4.267 0-7.726-3.459-7.726-7.726v-14.424h-1.797c-4.267 0-7.726-3.459-7.726-7.726s3.459-7.726 7.726-7.726h9.523c4.267 0 7.726 3.459 7.726 7.726v22.15c0 4.267-3.459 7.726-7.726 7.726z" fill="#5a5a5a"/></g><path d="m256.049 57.615h-.792c-4.809 0-9.549.298-14.205.865 57.567 7.007 102.162 56.044 102.162 115.502v41.248c0 59.458-44.595 108.495-102.162 115.502 4.656.567 9.396.865 14.205.865h.792c64.268 0 116.367-52.099 116.367-116.367v-41.248c-.001-64.268-52.1-116.367-116.367-116.367z" fill="#ffb09e"/><path d="m339.619 234.499c-6.23 0-10.85 0-17.181 0-4.267 0-7.726 3.459-7.726 7.726s3.459 7.726 7.726 7.726h17.181c4.267 0 7.726-3.459 7.726-7.726.001-4.267-3.459-7.726-7.726-7.726z" fill="#fe8f83"/><path d="m219.718 165.257h23.362l50.338-79.752-59.75-25.87c-37.747 7.083-69.071 32.38-84.479 66.428 14.666 23.528 40.762 39.194 70.529 39.194z" fill="#ffb09e"/><path d="m399.125 165.257h-156.046c-45.879 0-83.071-37.192-83.071-83.071v-5.478c.001-42.364 34.344-76.708 76.709-76.708h55.45c59.071 0 106.957 47.886 106.957 106.957v58.3z" fill="#d77f4a"/><path d="m289.639 0h-36.026c60.467 0 109.485 46.781 109.485 104.487v60.77h36.026v-60.77c.001-57.706-49.018-104.487-109.485-104.487z" fill="#c86d36"/></g></svg>